# xmcd CD database file
#
# Track frame offsets:
#	187
#	12325
#	32592
#	44325
#	61035
#	81577
#
# Disc length: 1322 seconds
#
# Revision: 6
# Processed by: cddbd v1.5.1PL2 Copyright (c) Steve Scherf et al.
# Submitted via: CDex 1.51
#
DISCID=43052806
DTITLE=JITTERIN'JINN - Hi-King
DYEAR=1990
DGENRE=JPop
TTITLE0=かなしいな
TTITLE1=トレイン トレイン
TTITLE2=プリプリダーリン
TTITLE3=BABY BABY
TTITLE4=プレゼント (Album Version)
TTITLE5=雨
EXTD=YEAR: 1990
EXTT0=
EXTT1=
EXTT2=
EXTT3=
EXTT4=
EXTT5=
PLAYORDER=
